<svg width="48" height="48" viewBox="0 0 48 48" fill="none" xmlns="http://www.w3.org/2000/svg">
<rect width="48" height="48" rx="24" fill="#EFF8FF"/>
<path d="M29.8475 20.0858V18.4857C29.8475 18.1333 29.5618 17.8477 29.2095 17.8477H15.7162C15.3638 17.8477 15.0781 18.1333 15.0781 18.4857V25.7551C15.0781 26.1075 15.3638 26.3931 15.7162 26.3931H18.743" stroke="#9B8AFB" stroke-width="4.29224"/>
<mask id="mask0_13415_168551" style="mask-type:alpha" maskUnits="userSpaceOnUse" x="16" y="17" width="20" height="16">
<rect x="16.3477" y="17.5742" width="19.6532" height="15.4277" fill="#D9D9D9"/>
</mask>
<g mask="url(#mask0_13415_168551)">
<path d="M34.7839 17.7858H31.5429H31.1377V14.0353C31.1377 13.3449 30.5936 12.7852 29.9223 12.7852H12.9068C12.2356 12.7852 11.6914 13.3449 11.6914 14.0353V26.5371C11.6914 27.2275 12.2356 27.7872 12.9068 27.7872H16.553V28.204V31.5378C16.553 32.2282 17.0972 32.7879 17.7684 32.7879H21.0094H21.0111H31.5429H34.7839C35.4551 32.7879 35.9993 32.2282 35.9993 31.5378V28.204V22.3698V19.036C35.9993 18.3456 35.4551 17.7858 34.7839 17.7858ZM30.4973 30.2876H22.0555C21.6349 28.7635 20.4654 27.5612 18.9838 27.1285V23.4454C20.4653 23.0126 21.6342 21.8102 22.055 20.2863H30.4972C30.918 21.8102 32.0869 23.0126 33.5684 23.4454V27.1285C32.087 27.5613 30.9181 28.7636 30.4973 30.2876ZM14.1222 25.2869V15.2855H28.7069V17.7858H21.0094H17.7684C17.0972 17.7858 16.553 18.3456 16.553 19.036V22.3698V25.2869H14.1222Z" fill="#4A1FB8"/>
<path d="M15.9744 20.4818C17.5092 20.4818 18.7535 19.5931 18.7535 18.4968C18.7535 17.4005 17.5092 16.5117 15.9744 16.5117C14.4395 16.5117 13.1953 17.4005 13.1953 18.4968C13.1953 19.5931 14.4395 20.4818 15.9744 20.4818Z" fill="#4A1FB8"/>
</g>
</svg>
