<svg width="66" height="39" viewBox="0 0 66 39" fill="none" xmlns="http://www.w3.org/2000/svg">
<path d="M33.5468 8.40625C31.4562 8.40625 29.4126 9.02619 27.6743 10.1877C25.936 11.3491 24.5812 13 23.7812 14.9315C22.9811 16.8629 22.7718 18.9882 23.1797 21.0387C23.5875 23.0891 24.5942 24.9726 26.0725 26.4508C27.5508 27.9291 29.4343 28.9358 31.4847 29.3437C33.5351 29.7515 35.6604 29.5422 37.5919 28.7422C39.5234 27.9421 41.1742 26.5873 42.3357 24.8491C43.4972 23.1108 44.1171 21.0671 44.1171 18.9765C44.1169 16.1732 43.0031 13.4847 41.0209 11.5025C39.0386 9.52023 36.3502 8.4065 33.5468 8.40625ZM33.5468 22.4016C32.8694 22.4016 32.2072 22.2008 31.644 21.8244C31.0807 21.448 30.6417 20.9131 30.3825 20.2873C30.1232 19.6614 30.0554 18.9727 30.1875 18.3083C30.3197 17.6439 30.6459 17.0336 31.1249 16.5546C31.6039 16.0756 32.2142 15.7494 32.8786 15.6172C33.543 15.4851 34.2317 15.5529 34.8576 15.8121C35.4834 16.0714 36.0184 16.5104 36.3947 17.0736C36.7711 17.6369 36.972 18.2991 36.972 18.9765C36.972 19.8849 36.6111 20.7561 35.9688 21.3984C35.3264 22.0408 34.4552 22.4016 33.5468 22.4016Z" fill="#1C1C1C"/>
<path d="M33.5462 32.0107C34.2236 32.0107 34.8858 32.2116 35.4491 32.588C36.0124 32.9643 36.4514 33.4993 36.7106 34.1251C36.9698 34.751 37.0377 35.4397 36.9055 36.1041C36.7734 36.7685 36.4471 37.3788 35.9681 37.8578C35.4891 38.3368 34.8788 38.663 34.2144 38.7952C33.55 38.9273 32.8613 38.8595 32.2355 38.6003C31.6096 38.341 31.0747 37.902 30.6983 37.3387C30.322 36.7755 30.1211 36.1133 30.1211 35.4359C30.1211 34.5275 30.482 33.6563 31.1243 33.0139C31.7666 32.3716 32.6378 32.0107 33.5462 32.0107Z" fill="#1C1C1C"/>
<path d="M18.3053 13.8581C19.1466 12.4959 19.609 10.9337 19.6447 9.33302C19.6804 7.73231 19.2881 6.15109 18.5084 4.75266C17.7287 3.35423 16.5898 2.1893 15.2094 1.37818C13.829 0.567064 12.257 0.139162 10.6559 0.138672L0 0.138672V29.2521H11.9879C13.7713 29.2514 15.5142 28.7206 16.9953 27.7271C18.4763 26.7335 19.6285 25.3222 20.3056 23.6723C20.9827 22.0224 21.154 20.2085 20.7979 18.4611C20.4417 16.7136 19.5741 15.1114 18.3053 13.8581ZM6.85974 6.9889H10.6654C11.2332 6.9889 11.7777 7.21443 12.1791 7.61589C12.5806 8.01735 12.8061 8.56184 12.8061 9.12959C12.8061 9.69734 12.5806 10.2418 12.1791 10.6433C11.7777 11.0447 11.2332 11.2703 10.6654 11.2703H6.85974V6.9889ZM11.9974 22.4019H6.85974V18.1205H11.9974C12.5652 18.1205 13.1096 18.346 13.5111 18.7475C13.9126 19.149 14.1381 19.6935 14.1381 20.2612C14.1381 20.829 13.9126 21.3734 13.5111 21.7749C13.1096 22.1764 12.5652 22.4019 11.9974 22.4019Z" fill="#1C1C1C"/>
<path d="M65.9902 15.6465V8.79629H62.5651V3.56348L55.7148 5.01915V22.7441C55.7148 26.9208 58.3122 29.3279 62.1369 29.5277C62.175 29.5277 62.2226 29.5372 62.2606 29.5372H62.3272C62.4128 29.5372 62.489 29.5468 62.5746 29.5468H62.6602C63.827 29.5416 64.9744 29.2474 65.9997 28.6905V23.6479C65.5005 23.7835 64.9852 23.8507 64.4679 23.8477C63.0979 23.8477 62.5746 22.649 62.5746 21.022V15.6465H65.9902Z" fill="#1C1C1C"/>
</svg>
