<svg width="82" height="80" viewBox="0 0 82 80" fill="none" xmlns="http://www.w3.org/2000/svg">
<ellipse cx="40.75" cy="40" rx="40.5" ry="40" fill="#1D2939"/>
<path d="M56.6468 43.1995V28.0148C56.6468 26.9037 55.7428 26.0002 54.6322 26.0002L28.2648 26C27.154 26 26.25 26.9038 26.25 28.0148V46.2612C26.25 47.3723 27.154 48.2758 28.2646 48.2758H54.632C55.7428 48.2758 56.6466 47.372 56.6466 46.2612V43.2483C56.6475 43.2397 56.652 43.2325 56.652 43.2239C56.652 43.2154 56.6475 43.2084 56.647 43.1998L56.6468 43.1995ZM41.957 45.9763H40.9478C40.6856 45.9763 40.4729 45.7638 40.4729 45.5013C40.4729 45.2389 40.6856 45.0264 40.9478 45.0264H41.957C42.2193 45.0264 42.432 45.2389 42.432 45.5013C42.432 45.7638 42.2193 45.9763 41.957 45.9763ZM55.6968 42.7486H27.2004V28.0145C27.2004 27.4277 27.678 26.9498 28.265 26.9498H54.6324C55.2193 26.9498 55.697 27.4277 55.697 28.0145L55.6968 42.7486Z" fill="#7AD06D"/>
<path d="M49.0879 54.049H47.676C45.9778 52.7496 44.8589 50.7746 44.3895 49.2227H38.5083C38.0437 50.7749 36.9248 52.7496 35.2265 54.049H33.8187C33.5565 54.049 33.3438 54.2615 33.3438 54.524C33.3438 54.7865 33.5565 54.9989 33.8187 54.9989H49.0876C49.3499 54.9989 49.5626 54.7865 49.5626 54.524C49.5626 54.2615 49.3499 54.049 49.0876 54.049H49.0879Z" fill="#7AD06D"/>
<path d="M49.8361 35.0683L51.6891 34.0514C51.8547 33.9604 51.9505 33.7806 51.9338 33.5927C51.9169 33.4048 51.7905 33.2443 51.6116 33.1844L44.0011 30.634C43.831 30.577 43.6429 30.6205 43.5151 30.7476C43.3878 30.8742 43.3425 31.0621 43.3989 31.2329L45.9023 38.8457C45.9614 39.0258 46.1218 39.1533 46.3104 39.1704C46.499 39.1884 46.6799 39.0911 46.7705 38.9246L47.7371 37.1529L50.5604 39.9376C50.653 40.0291 50.7733 40.0744 50.8938 40.0744C51.0153 40.0744 51.1369 40.028 51.2298 39.9351L52.6303 38.5346C52.816 38.3489 52.816 38.0483 52.6303 37.8629L49.8361 35.0683Z" fill="#7AD06D"/>
<path d="M39.4207 29.1641H29.7914C29.5291 29.1641 29.3164 29.3765 29.3164 29.639V33.1475C29.3164 33.41 29.5291 33.6224 29.7914 33.6224H39.4207C39.683 33.6224 39.8957 33.41 39.8957 33.1475V29.639C39.8957 29.3765 39.683 29.1641 39.4207 29.1641Z" fill="#7AD06D"/>
<path d="M39.1827 34.9961H29.682C29.4197 34.9961 29.207 35.2086 29.207 35.4711C29.207 35.7336 29.4197 35.946 29.682 35.946H39.1827C39.445 35.946 39.6577 35.7336 39.6577 35.4711C39.6577 35.2086 39.445 34.9961 39.1827 34.9961Z" fill="#7AD06D"/>
<path d="M39.1827 37.3711H29.682C29.4197 37.3711 29.207 37.5836 29.207 37.8461C29.207 38.1086 29.4197 38.321 29.682 38.321H39.1827C39.445 38.321 39.6577 38.1086 39.6577 37.8461C39.6577 37.5836 39.445 37.3711 39.1827 37.3711Z" fill="#7AD06D"/>
<path d="M39.1827 39.7461H29.682C29.4197 39.7461 29.207 39.9586 29.207 40.2211C29.207 40.4836 29.4197 40.696 29.682 40.696H39.1827C39.445 40.696 39.6577 40.4836 39.6577 40.2211C39.6577 39.9583 39.445 39.7461 39.1827 39.7461Z" fill="#7AD06D"/>
</svg>
