<svg width="28" height="28" viewBox="0 0 28 28" fill="none" xmlns="http://www.w3.org/2000/svg">
<path d="M17.969 24.5V16.373H20.6908L21.098 13.2137H17.969V11.1977C17.969 10.283 18.2233 9.65883 19.5347 9.65883H21.2077V6.83317C20.3978 6.74724 19.5838 6.70556 18.7693 6.70833C16.3578 6.70833 14.707 8.18067 14.707 10.885V13.2137H11.9793V16.373H14.707V24.5H4.66667C4.35725 24.5 4.0605 24.3771 3.84171 24.1583C3.62292 23.9395 3.5 23.6428 3.5 23.3333V4.66667C3.5 4.35725 3.62292 4.0605 3.84171 3.84171C4.0605 3.62292 4.35725 3.5 4.66667 3.5H23.3333C23.6428 3.5 23.9395 3.62292 24.1583 3.84171C24.3771 4.0605 24.5 4.35725 24.5 4.66667V23.3333C24.5 23.6428 24.3771 23.9395 24.1583 24.1583C23.9395 24.3771 23.6428 24.5 23.3333 24.5H17.969Z" fill="#094063"/>
</svg>
