<svg width="195" height="52" viewBox="0 0 195 52" fill="none" xmlns="http://www.w3.org/2000/svg">
<path d="M65.0569 40.6051C65.9673 41.1654 66.9232 41.4458 67.9248 41.446C69.5636 41.446 70.8913 40.9158 71.908 39.8552C72.9247 38.7946 73.4331 37.2796 73.4331 35.3097L73.45 35.2654C71.6954 36.3415 69.6759 36.9094 67.6168 36.906C61.451 36.906 56.4528 31.9153 56.4528 25.759C56.4528 19.6028 61.451 14.6121 67.6168 14.6121C69.6587 14.6088 71.6621 15.1672 73.407 16.226L73.4341 16.2573V14.6285H79.9895V34.9918C79.9895 36.8098 79.7087 38.4839 79.1473 40.0143C78.5859 41.5447 77.7816 42.8628 76.7345 43.9687C75.6874 45.0746 74.4202 45.9304 72.9332 46.5366C71.4462 47.1429 69.777 47.4459 67.9255 47.4459C66.3166 47.4459 64.8749 47.2413 63.601 46.8322C62.3271 46.423 61.2115 45.8929 60.2548 45.2414L65.0569 40.6051ZM67.6171 20.8797C64.9177 20.8797 62.7291 23.0646 62.7291 25.76C62.7291 28.4555 64.9177 30.6404 67.6171 30.6404C70.3165 30.6404 72.5053 28.4552 72.5053 25.76C72.5053 23.0648 70.3167 20.8797 67.6171 20.8797Z" fill="#F95D43"/>
<path d="M85.8063 12.5511C85.2708 12.5511 84.7759 12.4509 84.3213 12.2506C83.4293 11.8675 82.7185 11.1576 82.3349 10.267C82.1342 9.81315 82.0339 9.319 82.0339 8.78458C82.0332 8.28163 82.1355 7.78388 82.3349 7.32202C82.5229 6.87373 82.7952 6.46571 83.1375 6.1202C83.4786 5.7818 83.8801 5.51017 84.3213 5.31932C84.7759 5.11898 85.2708 5.0188 85.8063 5.0188C86.3099 5.01791 86.8083 5.12019 87.2709 5.31932C87.7212 5.50448 88.1303 5.77681 88.4748 6.12062C88.8191 6.46444 89.092 6.87291 89.2774 7.32251C89.4768 7.78437 89.5794 8.28213 89.5784 8.78508C89.5784 9.31967 89.4781 9.81382 89.2774 10.2675C89.0862 10.7082 88.8139 11.1091 88.4748 11.4497C88.1288 11.7914 87.72 12.0635 87.2709 12.2511C86.8083 12.45 86.3099 12.5521 85.8063 12.5511ZM88.9891 36.8427V14.5712H82.3919V36.8427H88.9891Z" fill="#F95D43"/>
<path d="M99.7643 40.6051C100.675 41.1654 101.631 41.4458 102.632 41.446C104.271 41.446 105.599 40.9158 106.615 39.8552C107.632 38.7946 108.141 37.2796 108.141 35.3097L108.157 35.2654C106.403 36.3415 104.384 36.9094 102.325 36.906C96.1587 36.906 91.1603 31.9152 91.1603 25.759C91.1603 19.6028 96.1587 14.6121 102.325 14.6121C104.366 14.6089 106.369 15.1672 108.114 16.2258L108.141 16.2571V14.6285H114.696V34.9917C114.696 36.8098 114.415 38.4839 113.854 40.0143C113.293 41.5447 112.489 42.8628 111.441 43.9687C110.394 45.0746 109.127 45.9304 107.64 46.5366C106.153 47.1429 104.484 47.4459 102.632 47.4459C101.023 47.4459 99.5818 47.2413 98.3074 46.8322C97.0331 46.423 95.9177 45.8929 94.9613 45.2414L99.7643 40.6051ZM102.325 20.8797C99.6249 20.8797 97.4366 23.0646 97.4366 25.76C97.4366 28.4555 99.6249 30.6404 102.325 30.6404C105.024 30.6404 107.212 28.4552 107.212 25.76C107.212 23.0648 105.024 20.8797 102.325 20.8797Z" fill="#F95D43"/>
<path d="M158.326 12.5183C157.719 12.5183 157.157 12.4047 156.642 12.1776C155.63 11.7429 154.824 10.9377 154.388 9.92754C154.161 9.41251 154.047 8.85192 154.047 8.24574C154.046 7.67533 154.162 7.11081 154.388 6.58706C154.616 6.0568 154.919 5.60232 155.299 5.22368C155.686 4.83967 156.141 4.53127 156.642 4.31442C157.158 4.08723 157.719 3.97364 158.326 3.97364C158.898 3.97264 159.463 4.08863 159.988 4.31442C160.519 4.54179 160.974 4.84486 161.354 5.22368C161.733 5.60249 162.037 6.05694 162.264 6.58706C162.491 7.11074 162.607 7.67528 162.607 8.24574C162.607 8.85224 162.493 9.41283 162.265 9.92754C162.048 10.4273 161.739 10.882 161.355 11.2683C160.975 11.6476 160.519 11.9507 159.989 12.1776C159.464 12.4035 158.898 12.5195 158.326 12.5183ZM123.465 14.6103H117.177V36.9695H123.682V26.6215C123.682 24.6212 124.027 23.0227 124.716 21.8259C125.404 20.6293 126.668 20.0305 128.046 20.0305C129.213 20.0305 130.074 20.3868 130.628 21.0993C131.182 21.8119 131.459 22.7437 131.459 23.8947V36.9693H138.195V26.6215C138.195 24.6212 138.57 23.0227 139.318 21.8259C140.067 20.6291 141.174 20.0307 142.641 20.0305C143.658 20.0305 144.429 20.3868 144.953 21.0993C145.478 21.8119 145.74 22.7437 145.739 23.8947L145.723 31.3517C145.723 31.3517 145.799 36.9576 151.489 36.9576H161.433V14.6056H154.835V31.3512H152.4L152.475 23.4851C152.475 22.1826 152.311 20.9857 151.982 19.8943C151.652 18.8029 151.166 17.8637 150.523 17.0765C149.879 16.2891 149.063 15.6755 148.076 15.2357C147.088 14.7959 145.935 14.576 144.617 14.5762C142.761 14.5762 141.219 14.9777 139.992 15.7808C138.764 16.5838 137.821 17.5156 137.162 18.5761C136.713 17.5156 135.935 16.5838 134.827 15.7808C133.719 14.9777 132.327 14.5762 130.65 14.5762C129.124 14.5762 127.799 14.8868 126.676 15.5078C125.553 16.1293 124.517 16.8648 123.418 18.1924L123.465 14.6103Z" fill="#F95D43"/>
<path d="M163.692 36.9498V3.85278H170.521V36.9498H163.692Z" fill="#F95D43"/>
<path d="M190.014 35.4691C188.347 36.4931 186.332 37.0052 183.967 37.0052C182.343 37.0052 180.84 36.7278 179.458 36.173C178.076 35.6182 176.872 34.8429 175.846 33.8474C174.821 32.8519 174.023 31.6784 173.453 30.327C172.883 28.9755 172.599 27.4893 172.598 25.8679C172.598 24.36 172.883 22.9305 173.453 21.5794C174.023 20.2284 174.814 19.0478 175.826 18.0376C176.837 17.0281 178.019 16.2244 179.373 15.6265C180.727 15.0287 182.202 14.7304 183.797 14.7317C185.534 14.7317 187.066 15.0161 188.391 15.585C189.716 16.1539 190.82 16.9291 191.703 17.9106C192.586 18.8923 193.255 20.044 193.712 21.3657C194.168 22.6874 194.396 24.1027 194.396 25.6117C194.396 25.8396 194.388 26.067 194.374 26.2942C194.36 26.5224 194.338 26.721 194.31 26.8908C194.283 27.0745 194.268 27.2597 194.267 27.4453H178.838C179.152 28.811 179.793 29.8067 180.761 30.4324C181.73 31.058 182.813 31.3709 184.01 31.3712C185.206 31.3712 186.196 31.1152 186.98 30.6031L190.014 35.4691ZM188.368 23.0942C188.311 22.7528 188.176 22.3831 187.963 21.9849C187.749 21.5866 187.45 21.2239 187.065 20.8966C186.681 20.57 186.21 20.2997 185.655 20.0858C185.099 19.8719 184.479 19.7652 183.796 19.7659C182.798 19.7659 181.872 20.0503 181.018 20.6192C180.164 21.1881 179.537 22.0131 179.137 23.0942H188.368Z" fill="#F95D43"/>
<path d="M26.0305 0C18.9615 0 18.0759 0.0308222 15.2989 0.156597C5.84441 0.589101 0.591013 5.82589 0.15684 15.2751C0.0296253 18.0459 0 18.932 0 25.9901C0 33.0481 0.0296253 33.9345 0.15684 36.7072C0.591013 46.1468 5.83594 51.39 15.2989 51.8235C18.0759 51.9505 18.9615 51.9801 26.0305 51.9801C33.0995 51.9801 33.9872 51.9505 36.7643 51.8235C46.2081 51.3923 51.4774 46.1562 51.9041 36.7072C52.0313 33.9345 52.0609 33.0503 52.0609 25.9901C52.0609 18.9298 52.0311 18.0459 51.9041 15.2751C51.4784 5.84602 46.228 0.590096 36.7643 0.156597C33.9872 0.0308222 33.0995 0 26.0305 0Z" fill="white"/>
<path d="M38.3516 12.9368H35.5399C36.4929 14.6388 36.9916 16.5567 36.9886 18.5065C36.9886 24.82 31.8637 29.936 25.5415 29.936C19.2194 29.936 14.0942 24.8188 14.0942 18.5065C14.0942 12.1941 19.2191 7.0769 25.5425 7.0769H38.3526L38.3516 12.9368ZM25.5425 13.132C22.5695 13.132 20.1594 15.5381 20.1594 18.5065C20.1594 21.4748 22.5685 23.881 25.5425 23.881C28.5165 23.881 30.9254 21.4748 30.9254 18.5065C30.9254 15.5381 28.5143 13.132 25.5425 13.132ZM20.1584 46.2243L37.0568 34.9093V27.5217L20.1584 38.8364V46.2243Z" fill="#F95D43"/>
</svg>
