<svg width="48" height="48" viewBox="0 0 48 48" fill="none" xmlns="http://www.w3.org/2000/svg">
<rect width="48" height="48" rx="24" fill="#FEF3F2"/>
<path d="M28.2859 21.2844L26.3835 19.382C26.3522 19.351 26.3099 19.3334 26.2655 19.3334H22.7368C22.6925 19.3334 22.6502 19.351 22.6188 19.382L20.7165 21.2844C20.6855 21.3157 20.6678 21.3581 20.6678 21.4024V24.9311C20.6678 24.9754 20.6855 25.0178 20.7165 25.0491L22.6188 26.9515C22.6502 26.9825 22.6925 27.0001 22.7368 27.0001H26.2655C26.3099 27.0001 26.3522 26.9825 26.3835 26.9511L28.2859 25.0488C28.3169 25.0178 28.3346 24.9755 28.3346 24.9311V21.4024C28.3345 21.3581 28.3169 21.3157 28.2859 21.2844Z" fill="#C4320A"/>
<path d="M22.4034 18.6667H23.5011C23.5931 18.6667 23.6678 18.5921 23.6678 18.5V14.1667C23.6678 14.0747 23.5931 14 23.5011 14H14.8344C14.7424 14 14.6677 14.0746 14.6677 14.1667V20.0127C14.6677 20.1194 14.767 20.201 14.87 20.1747C15.048 20.1287 15.234 20.1037 15.426 20.1037C16.5047 20.1037 17.4084 20.8587 17.6411 21.8677C17.6587 21.9444 17.7234 22 17.8021 22H19.8344C19.9264 22 20.0011 21.9254 20.0011 21.8334V21.069C20.0011 21.0247 20.0188 20.9823 20.0498 20.951L22.2854 18.7153C22.3167 18.6844 22.3591 18.6667 22.4034 18.6667Z" fill="#C4320A"/>
<path d="M23.2157 31.4136L20.8824 29.4136C20.7837 29.3286 20.6447 29.3093 20.5261 29.364C20.4081 29.4183 20.3321 29.5363 20.3321 29.6666V30.6666H16.9987V26.8333C16.9987 26.7413 16.9241 26.6666 16.832 26.6666H15.1654C15.0734 26.6666 14.9987 26.7413 14.9987 26.8333V32.5C14.9987 32.592 15.0734 32.6667 15.1654 32.6667H20.3321V33.6667C20.3321 33.797 20.4081 33.915 20.5261 33.9693C20.5707 33.99 20.6181 34 20.6654 34C20.7434 34 20.8208 33.9726 20.8824 33.9196L23.2157 31.9196C23.2897 31.8563 23.3321 31.764 23.3321 31.6666C23.3321 31.5693 23.2898 31.477 23.2157 31.4136Z" fill="#C4320A"/>
<path d="M15.5 24.0001C16.3284 24.0001 17 23.3286 17 22.5001C17 21.6717 16.3284 21.0001 15.5 21.0001C14.6716 21.0001 14 21.6717 14 22.5001C14 23.3286 14.6716 24.0001 15.5 24.0001Z" fill="white"/>
<path d="M30.1666 33.9997C32.2837 33.9997 34 32.2834 34 30.1663C34 28.0493 32.2837 26.333 30.1666 26.333C28.0495 26.333 26.3333 28.0493 26.3333 30.1663C26.3333 32.2834 28.0495 33.9997 30.1666 33.9997Z" fill="white"/>
</svg>
