<svg width="48" height="48" viewBox="0 0 48 48" fill="none" xmlns="http://www.w3.org/2000/svg">
<rect width="48" height="48" rx="24" fill="#EFF8FF"/>
<path d="M29.8464 20.0866V18.4865C29.8464 18.1342 29.5607 17.8485 29.2083 17.8485H15.715C15.3627 17.8485 15.077 18.1342 15.077 18.4865V25.756C15.077 26.1083 15.3627 26.394 15.715 26.394H18.7419" stroke="#9B8AFB" stroke-width="4.29224"/>
<mask id="mask0_1_12678" style="mask-type:alpha" maskUnits="userSpaceOnUse" x="16" y="17" width="20" height="16">
<rect x="16.3465" y="17.5724" width="19.6532" height="15.4277" fill="#D9D9D9"/>
</mask>
<g mask="url(#mask0_1_12678)">
<path d="M34.7845 17.7852H31.5435H31.1384V14.0347C31.1384 13.3443 30.5942 12.7845 29.923 12.7845H12.9074C12.2362 12.7845 11.692 13.3443 11.692 14.0347V26.5364C11.692 27.2269 12.2362 27.7866 12.9074 27.7866H16.5536V28.2033V31.5371C16.5536 32.2276 17.0978 32.7873 17.769 32.7873H21.0101H21.0117H31.5435H34.7845C35.4558 32.7873 35.9999 32.2276 35.9999 31.5371V28.2033V22.3692V19.0354C35.9999 18.345 35.4558 17.7852 34.7845 17.7852ZM30.4979 30.287H22.0561C21.6355 28.7629 20.4661 27.5606 18.9844 27.1279V23.4448C20.466 23.012 21.6349 21.8096 22.0556 20.2857H30.4978C30.9186 21.8096 32.0875 23.012 33.5691 23.4448V27.1279C32.0876 27.5607 30.9187 28.763 30.4979 30.287ZM14.1228 25.2863V15.2849H28.7076V17.7852H21.0101H17.769C17.0978 17.7852 16.5536 18.345 16.5536 19.0354V22.3692V25.2863H14.1228Z" fill="#4A1FB8"/>
<path d="M15.9733 20.4817C17.5081 20.4817 18.7524 19.593 18.7524 18.4967C18.7524 17.4003 17.5081 16.5116 15.9733 16.5116C14.4384 16.5116 13.1942 17.4003 13.1942 18.4967C13.1942 19.593 14.4384 20.4817 15.9733 20.4817Z" fill="#4A1FB8"/>
</g>
</svg>
