<svg width="48" height="48" viewBox="0 0 48 48" fill="none" xmlns="http://www.w3.org/2000/svg">
<rect width="48" height="48" rx="24" fill="#F4F3FF"/>
<path d="M29.8463 20.0866V18.4865C29.8463 18.1342 29.5606 17.8485 29.2082 17.8485H15.7149C15.3626 17.8485 15.0769 18.1342 15.0769 18.4865V25.756C15.0769 26.1083 15.3626 26.394 15.7149 26.394H18.7418" stroke="#9B8AFB" stroke-width="4.29224"/>
<mask id="mask0_1_12515" style="mask-type:alpha" maskUnits="userSpaceOnUse" x="16" y="17" width="20" height="16">
<rect x="16.3464" y="17.5724" width="19.6532" height="15.4277" fill="#D9D9D9"/>
</mask>
<g mask="url(#mask0_1_12515)">
<path d="M34.7847 17.7852H31.5436H31.1385V14.0347C31.1385 13.3443 30.5943 12.7845 29.9231 12.7845H12.9075C12.2363 12.7845 11.6921 13.3443 11.6921 14.0347V26.5364C11.6921 27.2269 12.2363 27.7866 12.9075 27.7866H16.5537V28.2033V31.5371C16.5537 32.2276 17.0979 32.7873 17.7691 32.7873H21.0102H21.0118H31.5436H34.7847C35.4559 32.7873 36 32.2276 36 31.5371V28.2033V22.3692V19.0354C36 18.345 35.4559 17.7852 34.7847 17.7852ZM30.498 30.287H22.0562C21.6356 28.7629 20.4662 27.5606 18.9845 27.1279V23.4448C20.4661 23.012 21.635 21.8096 22.0557 20.2857H30.498C30.9187 21.8096 32.0876 23.012 33.5692 23.4448V27.1279C32.0877 27.5607 30.9188 28.763 30.498 30.287ZM14.1229 25.2863V15.2849H28.7077V17.7852H21.0102H17.7691C17.0979 17.7852 16.5537 18.345 16.5537 19.0354V22.3692V25.2863H14.1229Z" fill="#4A1FB8"/>
<path d="M15.9732 20.4817C17.508 20.4817 18.7523 19.593 18.7523 18.4967C18.7523 17.4003 17.508 16.5116 15.9732 16.5116C14.4383 16.5116 13.1941 17.4003 13.1941 18.4967C13.1941 19.593 14.4383 20.4817 15.9732 20.4817Z" fill="#4A1FB8"/>
</g>
</svg>
