<svg width="48" height="48" viewBox="0 0 48 48" fill="none" xmlns="http://www.w3.org/2000/svg">
<rect width="48" height="48" rx="24" fill="#FCE7F6"/>
<path d="M19.4754 15.5174C18.4763 16.0455 16.1452 16.8379 15.1045 16.8379C14.1054 27.9277 20.5164 32.9001 23.8468 34C33.3383 29.2473 33.6297 20.5783 32.589 16.8379C31.2356 16.6404 29.4665 16.4417 26.9688 14.8575C23.8465 12.8772 20.7243 14.8573 19.4754 15.5174Z" fill="#DD2590" stroke="#DD2590" stroke-width="2.57436"/>
<path fill-rule="evenodd" clip-rule="evenodd" d="M23.0318 26.5042L22.4823 26.0052L21.9752 26.0514L21.7649 26.1232L19.9103 23.3244L19.4107 23.2346L18.8325 23.6716L18.7463 24.1997L21.1305 27.7985L21.4015 27.9569L21.9722 27.9939L22.2645 27.8592L23.068 27.0389L23.0318 26.5042Z" fill="url(#paint0_linear_1_12501)"/>
<defs>
<linearGradient id="paint0_linear_1_12501" x1="21.005" y1="25.795" x2="26.1395" y2="27.1828" gradientUnits="userSpaceOnUse">
<stop stop-color="white"/>
<stop offset="0.927083" stop-color="#EBFAF7" stop-opacity="0.0729167"/>
<stop offset="1" stop-color="#F8FFFD" stop-opacity="0"/>
</linearGradient>
</defs>
</svg>
