<svg width="48" height="48" viewBox="0 0 48 48" fill="none" xmlns="http://www.w3.org/2000/svg">
<rect width="48" height="48" rx="24" fill="#FCE7F6"/>
<path d="M24 28.4584C24.7502 28.4584 25.3583 27.8502 25.3583 27.1C25.3583 26.3498 24.7502 25.7417 24 25.7417C23.2498 25.7417 22.6417 26.3498 22.6417 27.1C22.6417 27.8502 23.2498 28.4584 24 28.4584Z" fill="#FEF6FB"/>
<path d="M29.2334 21.9416V20.9C29.2334 18.65 28.6917 15.6666 24 15.6666C19.3084 15.6666 18.7667 18.65 18.7667 20.9V21.9416C16.4334 22.2333 15.6667 23.4166 15.6667 26.325V27.875C15.6667 31.2916 16.7084 32.3333 20.125 32.3333H27.875C31.2917 32.3333 32.3334 31.2916 32.3334 27.875V26.325C32.3334 23.4166 31.5667 22.2333 29.2334 21.9416ZM24 29.6166C22.6084 29.6166 21.4834 28.4833 21.4834 27.1C21.4834 25.7083 22.6167 24.5833 24 24.5833C25.3834 24.5833 26.5167 25.7166 26.5167 27.1C26.5167 28.4916 25.3917 29.6166 24 29.6166ZM20.125 21.8666C20.0584 21.8666 20 21.8666 19.9334 21.8666V20.9C19.9334 18.4583 20.625 16.8333 24 16.8333C27.375 16.8333 28.0667 18.4583 28.0667 20.9V21.875C28 21.875 27.9417 21.875 27.875 21.875H20.125V21.8666Z" fill="#C11574"/>
</svg>
