<svg width="28" height="28" viewBox="0 0 28 28" fill="none" xmlns="http://www.w3.org/2000/svg">
<path d="M14.0007 2.33203C17.1705 2.33203 17.566 2.3437 18.8097 2.40203C20.0522 2.46036 20.898 2.6552 21.6423 2.94453C22.4123 3.24086 23.061 3.6422 23.7097 4.2897C24.3029 4.87291 24.7619 5.57838 25.0548 6.35703C25.343 7.1002 25.539 7.9472 25.5973 9.1897C25.6522 10.4334 25.6673 10.8289 25.6673 13.9987C25.6673 17.1685 25.6557 17.564 25.5973 18.8077C25.539 20.0502 25.343 20.896 25.0548 21.6404C24.7628 22.4194 24.3036 23.1251 23.7097 23.7077C23.1263 24.3007 22.4208 24.7597 21.6423 25.0529C20.8991 25.341 20.0522 25.537 18.8097 25.5954C17.566 25.6502 17.1705 25.6654 14.0007 25.6654C10.8308 25.6654 10.4353 25.6537 9.19165 25.5954C7.94915 25.537 7.10332 25.341 6.35898 25.0529C5.58003 24.7606 4.87443 24.3015 4.29165 23.7077C3.69829 23.1246 3.23924 22.4191 2.94648 21.6404C2.65715 20.8972 2.46232 20.0502 2.40398 18.8077C2.34915 17.564 2.33398 17.1685 2.33398 13.9987C2.33398 10.8289 2.34565 10.4334 2.40398 9.1897C2.46232 7.94603 2.65715 7.10136 2.94648 6.35703C3.23843 5.57791 3.69759 4.87224 4.29165 4.2897C4.8746 3.69613 5.58015 3.23705 6.35898 2.94453C7.10332 2.6552 7.94798 2.46036 9.19165 2.40203C10.4353 2.3472 10.8308 2.33203 14.0007 2.33203ZM14.0007 8.16536C12.4536 8.16536 10.9698 8.77995 9.87586 9.87391C8.7819 10.9679 8.16732 12.4516 8.16732 13.9987C8.16732 15.5458 8.7819 17.0295 9.87586 18.1235C10.9698 19.2174 12.4536 19.832 14.0007 19.832C15.5477 19.832 17.0315 19.2174 18.1254 18.1235C19.2194 17.0295 19.834 15.5458 19.834 13.9987C19.834 12.4516 19.2194 10.9679 18.1254 9.87391C17.0315 8.77995 15.5477 8.16536 14.0007 8.16536ZM21.584 7.8737C21.584 7.48692 21.4303 7.11599 21.1568 6.8425C20.8834 6.56901 20.5124 6.41536 20.1257 6.41536C19.7389 6.41536 19.3679 6.56901 19.0945 6.8425C18.821 7.11599 18.6673 7.48692 18.6673 7.8737C18.6673 8.26047 18.821 8.6314 19.0945 8.9049C19.3679 9.17839 19.7389 9.33203 20.1257 9.33203C20.5124 9.33203 20.8834 9.17839 21.1568 8.9049C21.4303 8.6314 21.584 8.26047 21.584 7.8737ZM14.0007 10.4987C14.9289 10.4987 15.8191 10.8674 16.4755 11.5238C17.1319 12.1802 17.5007 13.0704 17.5007 13.9987C17.5007 14.927 17.1319 15.8172 16.4755 16.4736C15.8191 17.1299 14.9289 17.4987 14.0007 17.4987C13.0724 17.4987 12.1822 17.1299 11.5258 16.4736C10.8694 15.8172 10.5007 14.927 10.5007 13.9987C10.5007 13.0704 10.8694 12.1802 11.5258 11.5238C12.1822 10.8674 13.0724 10.4987 14.0007 10.4987Z" fill="#094063"/>
</svg>
