<svg width="22" height="22" viewBox="0 0 22 22" fill="none" xmlns="http://www.w3.org/2000/svg">
<path d="M18.3908 18.3955H15.2817V13.5223C15.2817 12.3603 15.2583 10.8647 13.66 10.8647C12.0395 10.8647 11.7922 12.1293 11.7922 13.4372V18.3955H8.68183V8.375H11.6685V9.74H11.7093C12.127 8.95367 13.142 8.12183 14.6587 8.12183C17.8087 8.12183 18.392 10.1962 18.392 12.8947V18.3955H18.3908ZM5.17017 7.00417C4.93281 7.00447 4.69774 6.95793 4.47841 6.86721C4.25908 6.77648 4.05981 6.64336 3.89203 6.47547C3.72425 6.30759 3.59126 6.10823 3.50068 5.88885C3.4101 5.66946 3.36371 5.43435 3.36417 5.197C3.3644 4.83981 3.47054 4.4907 3.66918 4.19384C3.86782 3.89697 4.15003 3.66567 4.48012 3.52919C4.81021 3.39272 5.17336 3.35719 5.52364 3.4271C5.87393 3.49701 6.19561 3.66922 6.44803 3.92196C6.70044 4.17469 6.87223 4.4966 6.94169 4.84698C7.01115 5.19735 6.97515 5.56046 6.83825 5.89037C6.70134 6.22029 6.46968 6.50219 6.17256 6.70045C5.87543 6.8987 5.52619 7.0044 5.169 7.00417H5.17017ZM6.72883 18.3955H3.61033V8.375H6.73V18.3955H6.72883ZM19.9483 0.5H2.0505C1.19183 0.5 0.5 1.17667 0.5 2.01317V19.9868C0.5 20.8233 1.193 21.5 2.04933 21.5H19.9437C20.8 21.5 21.5 20.8233 21.5 19.9868V2.01317C21.5 1.17667 20.8 0.5 19.9437 0.5H19.9472H19.9483Z" fill="#094063"/>
</svg>
