<svg width="145" height="36" viewBox="0 0 145 36" fill="none" xmlns="http://www.w3.org/2000/svg">
<g clip-path="url(#clip0_1_12607)">
<path d="M42.3565 5.29883C42.3024 5.29883 39.4137 5.29883 34.7832 7.57222L33.9934 7.97402C33.0665 8.46166 32.0784 9.0386 31.0362 9.72199C30.8667 9.83188 30.3654 10.1238 30.0913 10.3436C32.5292 12.7062 33.9825 14.2928 34.9599 15.4261C35.9372 16.5593 36.525 17.3526 37.3184 18.2524C44.3111 26.1509 57.6509 15.797 42.3565 5.29883Z" fill="#439687"/>
<path d="M31.0469 9.72546C32.0891 9.03863 33.0773 8.46513 34.0041 7.97749L34.7939 7.57569H34.7217L34.7975 7.55852C39.41 5.292 42.2987 5.28513 42.3708 5.28513C42.3492 5.1821 42.0931 5.16493 41.0473 4.4472C40.4462 4.02372 39.8134 3.64266 39.1539 3.30707C38.0756 2.58247 35.562 1.71707 35.562 1.71707H35.5332C32.3676 0.678758 29.056 0.0999239 25.7095 0C23.6196 0.0155406 21.5375 0.245816 19.4994 0.686826L19.3479 0.721168C16.7153 1.2775 13.3794 3.01517 13.3794 3.01517C11.5993 3.90835 9.91756 4.96906 8.35942 6.18144L8.28729 6.23982C7.7211 6.69656 3.89838 9.87313 1.36313 14.207V14.2242C1.22637 14.439 1.10585 14.6627 1.00249 14.8938C1.00249 14.8938 1.00249 14.8938 1.03495 14.8938C0.998886 14.9694 0.959217 15.0415 0.923153 15.1205C0.88709 15.1995 0.832995 15.3128 0.789719 15.4124C0.263987 16.6231 -0.00445138 17.921 -6.92723e-05 19.2311C-6.92723e-05 24.7257 4.77833 29.0424 10.5701 29.0424C18.23 29.0424 20.3072 21.635 24.9486 15.4261C26.4379 13.3382 28.3181 11.5292 30.4951 10.0895C30.5094 10.0784 30.5252 10.0691 30.542 10.062L31.0469 9.72546Z" fill="#4FBFA3"/>
<path d="M28.3963 23.8122C28.8663 23.8121 29.3335 23.8816 29.7811 24.0183C30.2148 24.1447 30.6163 24.3552 30.9604 24.6364C31.3182 24.3875 31.7101 24.1864 32.1253 24.0389C32.6256 23.8726 33.1534 23.7935 33.6832 23.8054C34.1167 23.8062 34.5479 23.8663 34.9634 23.9839C35.3728 24.0989 35.7541 24.2904 36.085 24.5471C36.4269 24.8275 36.6949 25.1804 36.8676 25.5774C37.0719 26.0709 37.1664 26.5995 37.1453 27.1296V32.7478C36.9679 32.7959 36.7871 32.8315 36.6043 32.8543C36.3502 32.892 36.0934 32.9104 35.8362 32.9092C35.6088 32.912 35.3818 32.8936 35.1582 32.8543C34.9721 32.8267 34.7968 32.7533 34.6497 32.6414C34.5043 32.5247 34.3947 32.3729 34.3323 32.2018C34.2492 31.9699 34.2113 31.7255 34.2205 31.4806V27.2086C34.2339 27.0692 34.2157 26.9287 34.1671 26.7966C34.1186 26.6645 34.0409 26.5438 33.9392 26.4428C33.7165 26.2716 33.4353 26.1848 33.1495 26.1989C32.9698 26.2039 32.7931 26.2436 32.6301 26.3157C32.4806 26.3747 32.3419 26.4558 32.219 26.5561C32.2241 26.6018 32.2241 26.6478 32.219 26.6935V32.7478C32.0341 32.7947 31.8462 32.8303 31.6564 32.8543C31.4095 32.8916 31.1599 32.91 30.9099 32.9092C30.6814 32.9118 30.4531 32.8934 30.2283 32.8543C30.0426 32.8255 29.8677 32.7522 29.7198 32.6414C29.5754 32.5239 29.4659 32.3723 29.4025 32.2018C29.3193 31.9699 29.2814 31.7255 29.2907 31.4806V27.2086C29.3053 27.0677 29.2859 26.9254 29.234 26.7927C29.1821 26.66 29.0991 26.5403 28.9913 26.4428C28.7728 26.279 28.5012 26.1928 28.2232 26.1989C28.0399 26.1954 27.8578 26.2293 27.6895 26.2985C27.5656 26.3549 27.4452 26.418 27.3288 26.4874V32.7478C27.1515 32.7959 26.9707 32.8315 26.7879 32.8543C26.5337 32.8919 26.2769 32.9102 26.0197 32.9092C25.7924 32.912 25.5653 32.8936 25.3417 32.8543C25.1557 32.8267 24.9804 32.7533 24.8332 32.6414C24.6879 32.5247 24.5782 32.3729 24.5159 32.2018C24.4327 31.9699 24.3949 31.7255 24.4041 31.4806V26.0994C24.3891 25.8315 24.4568 25.5652 24.5988 25.3335C24.7474 25.1261 24.9315 24.9439 25.1434 24.7944C25.5806 24.4904 26.0682 24.2583 26.5859 24.1076C27.1694 23.9194 27.7803 23.8197 28.3963 23.8122Z" fill="#439687"/>
<path d="M40.1746 30.5638C40.0484 30.2651 39.9113 29.9319 39.7671 29.5645C39.6228 29.197 39.475 28.7712 39.3199 28.2939C39.1648 27.8165 39.0061 27.2636 38.8402 26.6592C38.6744 26.0548 38.4796 25.3405 38.3137 24.5438C38.4929 24.3555 38.7084 24.2016 38.9484 24.0905C39.2253 23.9644 39.5287 23.8998 39.8356 23.9016C40.1887 23.8897 40.5373 23.9808 40.8346 24.1626C41.1451 24.4096 41.3524 24.7544 41.4188 25.1345L42.7784 30.0487H42.8505C42.9875 29.6435 43.121 29.2039 43.2544 28.7266C43.3878 28.2492 43.5141 27.7581 43.6403 27.2533C43.7665 26.7485 43.8855 26.2231 44.0009 25.7354C44.1163 25.2478 44.2029 24.7327 44.2858 24.2416C44.6986 24.0134 45.1681 23.8948 45.6454 23.8982C45.9997 23.8851 46.3493 23.9788 46.6444 24.166C46.7853 24.2785 46.8952 24.4221 46.9643 24.5844C47.0335 24.7466 47.0598 24.9225 47.0411 25.0967C47.0361 25.4715 46.995 25.8451 46.9184 26.2128C46.8391 26.6352 46.7345 27.0851 46.6011 27.5624C46.4676 28.0397 46.3126 28.5308 46.1359 29.0356C45.9592 29.5405 45.7752 30.0418 45.5769 30.5295C45.3785 31.0171 45.1802 31.4773 44.9746 31.9031C44.7691 32.329 44.5671 32.7273 44.3724 33.0742C44.107 33.569 43.807 34.0463 43.4744 34.5028C43.2491 34.8208 42.9839 35.1114 42.6846 35.3682C42.4658 35.5592 42.208 35.7053 41.9273 35.7974C41.671 35.8764 41.4032 35.9158 41.1339 35.9142C40.9165 35.9226 40.6997 35.8872 40.4977 35.8103C40.2957 35.7334 40.1131 35.6166 39.9618 35.4678C39.6548 35.1472 39.4673 34.7393 39.4281 34.307C39.7887 34.0083 40.1493 33.6786 40.5316 33.3146C40.8886 32.9626 41.2222 32.5899 41.5306 32.1985C41.2889 32.1092 41.0735 31.9655 40.9031 31.7795C40.5913 31.4155 40.3451 31.0046 40.1746 30.5638Z" fill="#439687"/>
<path d="M53.1574 26.2093C52.8778 26.2085 52.6004 26.2562 52.3388 26.3501C52.084 26.4463 51.8549 26.5953 51.668 26.7862C51.4678 26.9831 51.312 27.2168 51.21 27.473C51.0881 27.7812 51.0294 28.1088 51.0369 28.438C51.0129 28.7404 51.0551 29.0442 51.1606 29.3302C51.2661 29.6163 51.4327 29.8784 51.65 30.1001C51.8479 30.2809 52.0814 30.4228 52.3369 30.5177C52.5925 30.6125 52.8652 30.6585 53.1394 30.653C53.4426 30.6587 53.7447 30.617 54.0338 30.5294C54.2635 30.4534 54.4876 30.3627 54.7045 30.2581C54.9148 30.4046 55.0916 30.5904 55.2238 30.8041C55.3418 31.0226 55.4001 31.2659 55.3933 31.5116C55.3995 31.7406 55.3404 31.9669 55.2223 32.1664C55.1042 32.366 54.9315 32.5313 54.7226 32.6448C54.1548 32.9406 53.5116 33.0797 52.8653 33.0466C52.1933 33.0512 51.5264 32.9347 50.8998 32.7032C50.3397 32.4951 49.8312 32.1782 49.4068 31.7726C48.9786 31.3655 48.6466 30.8761 48.4331 30.3371C48.191 29.7438 48.0686 29.1123 48.0725 28.4758C48.0538 27.7734 48.1762 27.074 48.4331 26.4153C48.6415 25.8799 48.9717 25.395 49.4 24.9954C49.8283 24.5959 50.3442 24.2915 50.9107 24.1041C51.4775 23.9105 52.0756 23.8128 52.6778 23.8157C53.3505 23.7768 54.0191 23.9402 54.5891 24.2827C54.7968 24.4128 54.9669 24.5903 55.0841 24.799C55.2012 25.0078 55.2617 25.2411 55.2599 25.4778C55.2625 25.6984 55.2093 25.9163 55.1048 26.1131C55.0098 26.2975 54.8884 26.4686 54.7442 26.6214C54.5105 26.5146 54.2695 26.4228 54.0229 26.3466C53.744 26.257 53.4518 26.2107 53.1574 26.2093Z" fill="#094063"/>
<path d="M65.4334 28.4243C65.4455 29.0957 65.3344 29.7639 65.1052 30.3989C64.9128 30.9404 64.6018 31.4367 64.1928 31.855C63.7941 32.2488 63.3089 32.5537 62.7719 32.7479C62.1826 32.9563 61.5577 33.0588 60.9291 33.0501C60.2989 33.0584 59.673 32.9499 59.0862 32.7307C58.5491 32.524 58.0646 32.2102 57.6653 31.8104C57.2559 31.3911 56.9427 30.8952 56.7457 30.3543C56.5181 29.7343 56.407 29.081 56.4176 28.4243C56.4079 27.7733 56.519 27.1258 56.7457 26.5115C56.9424 25.9761 57.253 25.485 57.6581 25.0692C58.0574 24.6694 58.5419 24.3556 59.079 24.1488C59.6655 23.9284 60.2914 23.8188 60.9219 23.826C61.5541 23.822 62.1807 23.9388 62.7647 24.1694C63.3016 24.3709 63.7881 24.6775 64.1928 25.0692C64.6022 25.4884 64.9154 25.9843 65.1124 26.5252C65.3358 27.1354 65.4445 27.7782 65.4334 28.4243ZM59.4072 28.4243C59.3692 29.0062 59.5095 29.586 59.8111 30.0933C59.9296 30.2771 60.0972 30.4276 60.2968 30.5296C60.4964 30.6315 60.7208 30.6813 60.9471 30.6737C61.1706 30.6802 61.3919 30.6291 61.5874 30.5257C61.7829 30.4224 61.9455 30.2706 62.0579 30.0864C62.3436 29.5764 62.477 29.0015 62.4437 28.4243C62.4726 27.8518 62.3287 27.2834 62.029 26.7862C61.909 26.6076 61.7437 26.4605 61.5483 26.3587C61.3529 26.2569 61.1338 26.2035 60.911 26.2035C60.6883 26.2035 60.4692 26.2569 60.2738 26.3587C60.0784 26.4605 59.9131 26.6076 59.7931 26.7862C59.5034 27.2862 59.3696 27.8545 59.4072 28.4243Z" fill="#094063"/>
<path d="M72.408 32.5349C72.1944 32.6894 71.9484 32.7983 71.6868 32.8543C71.3446 32.9418 70.9916 32.9846 70.6373 32.9814C70.241 32.9884 69.8465 32.9279 69.4725 32.8028C69.3252 32.7547 69.1895 32.6792 69.0731 32.5808C68.9567 32.4823 68.862 32.3629 68.7945 32.2293C68.6899 32.0267 68.5673 31.7451 68.4338 31.3811C68.3004 31.017 68.1381 30.6118 67.9794 30.1654C67.8208 29.7189 67.6513 29.2382 67.4782 28.7265C67.3051 28.2148 67.1428 27.6962 66.9877 27.2086C66.8326 26.7209 66.692 26.2264 66.5658 25.7628C66.4395 25.2992 66.335 24.8871 66.2556 24.53C66.4393 24.3455 66.6584 24.1963 66.9011 24.0904C67.1813 23.9628 67.4886 23.8981 67.7991 23.9015C68.1501 23.889 68.4965 23.9802 68.7909 24.1625C69.0965 24.4123 69.3007 24.7562 69.3679 25.1344L70.0387 27.8817C70.1649 28.4208 70.2839 28.9119 70.3993 29.3412C70.5147 29.7705 70.6013 30.1104 70.659 30.3508H70.7455C70.9619 29.4671 71.1915 28.4895 71.4343 27.4181C71.6723 26.3466 71.8923 25.2923 72.0871 24.2552C72.2955 24.1439 72.5187 24.0596 72.7506 24.0045C72.9863 23.9465 73.2285 23.9165 73.4719 23.9153C73.8316 23.9043 74.1863 23.9977 74.4889 24.1831C74.6337 24.2931 74.7472 24.4359 74.8191 24.5985C74.8909 24.7611 74.9187 24.9383 74.9 25.1138C74.8869 25.3943 74.8434 25.6728 74.7702 25.9448C74.6872 26.3089 74.5754 26.7175 74.4456 27.1777C74.3158 27.6379 74.1571 28.1221 73.9804 28.6338C73.8037 29.1454 73.6198 29.664 73.4358 30.1345C73.2519 30.6049 73.0752 31.0789 72.8949 31.5081C72.7146 31.9374 72.5451 32.2602 72.408 32.5349Z" fill="#094063"/>
<path d="M80.7063 33.05C80.0646 33.0561 79.4267 32.9574 78.8201 32.7581C78.2552 32.568 77.7389 32.266 77.3055 31.8721C76.8576 31.4536 76.5105 30.9474 76.2885 30.3885C76.0321 29.719 75.9097 29.0096 75.9279 28.2971C75.908 27.6058 76.0305 26.9175 76.2885 26.271C76.5078 25.7468 76.8394 25.272 77.2622 24.8767C77.6559 24.5183 78.1256 24.2443 78.6398 24.0731C79.1483 23.9017 79.6836 23.8134 80.223 23.8121C80.7916 23.8048 81.3562 23.9028 81.8855 24.1006C82.3664 24.2786 82.8053 24.5459 83.1766 24.887C83.546 25.2302 83.8359 25.6431 84.0277 26.0993C84.2331 26.5812 84.336 27.0971 84.3306 27.6172C84.3542 27.9564 84.2362 28.2908 84.0024 28.5478C83.7526 28.7749 83.4327 28.9194 83.09 28.9599L78.831 29.6021C78.8886 29.7924 78.9869 29.9693 79.1197 30.1218C79.2525 30.2742 79.417 30.399 79.6027 30.4881C80.019 30.6898 80.4809 30.7912 80.9479 30.7834C81.4001 30.7848 81.85 30.7211 82.2822 30.5946C82.6431 30.4949 82.9878 30.3481 83.3064 30.1584C83.5005 30.2872 83.66 30.4578 83.7716 30.6564C83.8962 30.8657 83.9609 31.1026 83.9592 31.3432C83.9705 31.5875 83.9087 31.8298 83.781 32.042C83.6533 32.2542 83.465 32.4275 83.2379 32.5417C82.8538 32.7484 82.4334 32.8868 81.9973 32.9504C81.5705 33.017 81.1387 33.0503 80.7063 33.05ZM80.223 26.0306C79.9744 26.0244 79.7277 26.0726 79.5017 26.1714C79.3131 26.2599 79.146 26.3851 79.0113 26.5388C78.8851 26.6881 78.7886 26.858 78.7264 27.0402C78.6642 27.2215 78.6267 27.4096 78.6146 27.6L81.561 27.102C81.5103 26.834 81.3787 26.5857 81.1823 26.3877C81.0599 26.2646 80.9105 26.1687 80.7446 26.1069C80.5788 26.0452 80.4007 26.0191 80.223 26.0306Z" fill="#094063"/>
<path d="M88.8349 32.7479C88.6564 32.7963 88.4744 32.8319 88.2904 32.8544C88.0375 32.8921 87.7818 32.9105 87.5258 32.9094C87.2973 32.9119 87.069 32.8935 86.8442 32.8544C86.6565 32.8294 86.4798 32.7551 86.334 32.6399C86.1881 32.5246 86.0788 32.373 86.0184 32.2019C85.9352 31.97 85.8973 31.7256 85.9066 31.4808V26.1201C85.8986 25.8766 85.9491 25.6346 86.0544 25.4126C86.1557 25.2127 86.2979 25.0341 86.4728 24.8872C86.6795 24.7185 86.9086 24.5765 87.1544 24.4648C87.4357 24.332 87.7261 24.2173 88.0235 24.1214C88.3396 24.0249 88.6626 23.9503 88.99 23.8982C89.3188 23.8446 89.6518 23.8182 89.9853 23.8192C90.4488 23.7996 90.9069 23.9198 91.2944 24.1626C91.4625 24.291 91.5945 24.4569 91.6788 24.6457C91.7632 24.8344 91.7971 25.0401 91.7777 25.2444C91.7783 25.4103 91.7552 25.5755 91.7092 25.7355C91.6665 25.8858 91.6085 26.0319 91.5361 26.1716C91.2945 26.1716 91.0492 26.1716 90.8148 26.2094C90.5665 26.2321 90.3197 26.2676 90.0755 26.3158C89.8339 26.3639 89.6067 26.412 89.3939 26.4669C89.2073 26.5121 89.026 26.5754 88.853 26.6558L88.8349 32.7479Z" fill="#094063"/>
<path d="M97.0285 23.8123C97.6333 23.8059 98.2352 23.8941 98.81 24.0733C99.2987 24.2271 99.7561 24.4594 100.162 24.7602C100.377 24.9117 100.562 25.099 100.707 25.3131C100.848 25.5529 100.916 25.825 100.905 26.0995V32.3358C100.916 32.8997 100.793 33.4585 100.545 33.9705C100.328 34.4149 100.007 34.8062 99.607 35.1141C99.1971 35.433 98.7217 35.6669 98.2114 35.8009C97.6537 35.9483 97.0771 36.0211 96.4984 36.0172C95.6526 36.0545 94.8094 35.9041 94.0352 35.5777C93.7551 35.4526 93.5205 35.2508 93.3612 34.9983C93.2019 34.7457 93.1252 34.4536 93.1409 34.1594C93.1354 33.9091 93.1909 33.6611 93.3032 33.4348C93.3882 33.255 93.5109 33.0938 93.6638 32.9609C94.0201 33.1615 94.3987 33.3239 94.7926 33.4451C95.2116 33.5757 95.6499 33.6418 96.0909 33.6408C96.6067 33.6654 97.1197 33.5536 97.5731 33.318C97.7545 33.2101 97.9017 33.0572 97.9989 32.8757C98.0961 32.6942 98.1396 32.491 98.1248 32.2878V32.0027C97.5828 32.2317 96.9937 32.342 96.401 32.3255C95.8997 32.3268 95.4019 32.2454 94.9296 32.0852C94.4676 31.9258 94.0495 31.6687 93.7071 31.3331C93.333 30.9565 93.0456 30.5097 92.8632 30.0212C92.6376 29.407 92.5301 28.759 92.5458 28.1084C92.5312 27.4621 92.645 26.8189 92.8812 26.2128C93.0773 25.7142 93.3899 25.2647 93.7954 24.8982C94.2009 24.5317 94.6887 24.2578 95.2217 24.0974C95.8037 23.9093 96.414 23.813 97.0285 23.8123ZM98.1104 26.4051C97.9967 26.3434 97.8756 26.295 97.7498 26.2609C97.5625 26.2085 97.3679 26.1842 97.1728 26.1888C96.9366 26.1727 96.6996 26.209 96.4807 26.2948C96.2617 26.3806 96.0665 26.5136 95.9105 26.6833C95.6034 27.0895 95.4542 27.5849 95.4886 28.0844C95.4383 28.6132 95.588 29.1417 95.9105 29.5748C96.0432 29.7235 96.2094 29.8417 96.3967 29.9208C96.584 29.9999 96.7877 30.0377 96.9924 30.0315C97.3967 30.0514 97.7945 29.9292 98.1104 29.6881V26.4051Z" fill="#094063"/>
<path d="M107.31 33.0502C106.669 33.0563 106.031 32.9576 105.424 32.7583C104.846 32.5651 104.32 32.2524 103.883 31.8427C103.447 31.4331 103.111 30.9365 102.9 30.3887C102.641 29.7196 102.519 29.0099 102.539 28.2973C102.517 27.6059 102.64 26.9172 102.9 26.2712C103.116 25.7458 103.448 25.2704 103.873 24.8769C104.266 24.5171 104.736 24.2428 105.251 24.0734C105.759 23.9016 106.295 23.8134 106.834 23.8124C107.403 23.8054 107.967 23.9034 108.497 24.1008C108.977 24.2806 109.415 24.5477 109.788 24.8872C110.152 25.2317 110.437 25.6445 110.624 26.0995C110.827 26.5821 110.929 27.0977 110.924 27.6174C110.948 27.9562 110.832 28.2905 110.599 28.548C110.349 28.7751 110.029 28.9196 109.687 28.9601L105.431 29.6195C105.49 29.8099 105.589 29.9869 105.722 30.1393C105.856 30.2917 106.02 30.4164 106.207 30.5055C106.621 30.7076 107.082 30.809 107.548 30.8008C108 30.8025 108.45 30.7388 108.883 30.6119C109.245 30.5122 109.59 30.3654 109.91 30.1758C110.102 30.3057 110.26 30.4761 110.372 30.6738C110.498 30.8828 110.564 31.1196 110.563 31.3606C110.574 31.6048 110.512 31.847 110.384 32.0591C110.257 32.2712 110.069 32.4445 109.842 32.5591C109.459 32.766 109.04 32.9045 108.605 32.9677C108.176 33.0286 107.743 33.0562 107.31 33.0502ZM106.827 26.0308C106.578 26.0243 106.332 26.0724 106.106 26.1716C105.916 26.2592 105.749 26.3845 105.615 26.5391C105.488 26.6875 105.391 26.8576 105.33 27.0404C105.266 27.2213 105.229 27.4096 105.219 27.6002L108.161 27.1023C108.114 26.8332 107.982 26.5841 107.783 26.388C107.661 26.2647 107.512 26.1687 107.347 26.1069C107.182 26.0451 107.004 26.0191 106.827 26.0308Z" fill="#094063"/>
<path d="M117.812 27.2635C117.826 27.115 117.807 26.9654 117.754 26.8249C117.702 26.6844 117.618 26.5563 117.509 26.4496C117.282 26.2674 116.99 26.1741 116.694 26.1886C116.464 26.1891 116.234 26.2192 116.012 26.2779C115.804 26.3327 115.609 26.4235 115.435 26.5458V32.7478C115.258 32.7959 115.077 32.8315 114.894 32.8543C114.64 32.8918 114.383 32.9102 114.126 32.9092C113.899 32.9119 113.672 32.8935 113.448 32.8543C113.262 32.8266 113.087 32.7533 112.94 32.6414C112.794 32.5247 112.685 32.3728 112.622 32.2018C112.539 31.9699 112.501 31.7255 112.511 31.4806V26.1199C112.498 25.8457 112.566 25.5736 112.705 25.3335C112.847 25.1193 113.028 24.9309 113.239 24.7772C113.685 24.4702 114.182 24.2379 114.71 24.0904C115.35 23.9049 116.015 23.8146 116.683 23.8225C117.979 23.8225 118.977 24.1178 119.676 24.7085C120.032 25.0177 120.311 25.3985 120.493 25.8232C120.676 26.2479 120.756 26.7059 120.729 27.1639V32.7478C120.551 32.7962 120.369 32.8317 120.185 32.8543C119.932 32.892 119.676 32.9104 119.42 32.9092C119.192 32.9118 118.963 32.8934 118.739 32.8543C118.553 32.8247 118.378 32.7515 118.23 32.6414C118.086 32.5239 117.976 32.3723 117.913 32.2018C117.83 31.9699 117.792 31.7255 117.801 31.4806L117.812 27.2635Z" fill="#094063"/>
<path d="M122.652 21.6695C122.638 21.2492 122.794 20.84 123.088 20.5259C123.24 20.3792 123.421 20.2627 123.621 20.1832C123.82 20.1037 124.035 20.0627 124.251 20.0627C124.467 20.0627 124.682 20.1037 124.881 20.1832C125.081 20.2627 125.262 20.3792 125.414 20.5259C125.698 20.8454 125.854 21.2507 125.854 21.6695C125.854 22.0883 125.698 22.4936 125.414 22.8131C125.262 22.9598 125.081 23.0763 124.881 23.1558C124.682 23.2353 124.467 23.2762 124.251 23.2762C124.035 23.2762 123.82 23.2353 123.621 23.1558C123.421 23.0763 123.24 22.9598 123.088 22.8131C122.794 22.499 122.638 22.0898 122.652 21.6695ZM125.717 32.748L125.154 32.8476C124.908 32.8889 124.658 32.9096 124.408 32.9094C124.179 32.912 123.951 32.8936 123.726 32.8545C123.539 32.8294 123.362 32.7552 123.216 32.6399C123.07 32.5247 122.961 32.373 122.9 32.202C122.817 31.9701 122.779 31.7257 122.789 31.4808V24.2073L123.337 24.1077C123.584 24.0664 123.835 24.0457 124.087 24.0459C124.314 24.0432 124.541 24.0616 124.765 24.1009C124.951 24.1285 125.126 24.2019 125.273 24.3138C125.419 24.4304 125.528 24.5823 125.591 24.7533C125.675 24.985 125.714 25.2294 125.706 25.4745L125.717 32.748Z" fill="#094063"/>
<path d="M127.747 24.2071C127.924 24.1573 128.105 24.1217 128.288 24.1006C128.542 24.063 128.799 24.0447 129.056 24.0457C129.284 24.0429 129.511 24.0613 129.734 24.1006C129.922 24.1262 130.099 24.2006 130.246 24.3157C130.392 24.4308 130.502 24.5822 130.564 24.7531C130.645 24.9854 130.683 25.2295 130.676 25.4743V29.3171C130.657 29.5019 130.677 29.6885 130.736 29.8656C130.795 30.0427 130.891 30.2066 131.018 30.3473C131.295 30.5722 131.654 30.6844 132.017 30.6598C132.235 30.6645 132.452 30.6414 132.663 30.5911C132.796 30.5556 132.925 30.5073 133.049 30.4469V24.2071C133.227 24.157 133.409 24.1214 133.593 24.1006C133.846 24.0629 134.102 24.0445 134.358 24.0457C134.586 24.0431 134.815 24.0615 135.039 24.1006C135.227 24.1256 135.404 24.1999 135.55 24.3152C135.695 24.4304 135.805 24.5821 135.865 24.7531C135.948 24.985 135.986 25.2294 135.977 25.4743V30.9071C135.993 31.1712 135.934 31.4346 135.807 31.67C135.681 31.9055 135.49 32.1044 135.256 32.2464C134.815 32.5255 134.327 32.7289 133.813 32.8474C133.223 32.985 132.618 33.0531 132.01 33.05C131.431 33.0563 130.855 32.9847 130.297 32.8371C129.803 32.7076 129.342 32.4819 128.945 32.1743C128.557 31.8662 128.255 31.4708 128.068 31.0238C127.847 30.4766 127.741 29.893 127.758 29.3068L127.747 24.2071Z" fill="#094063"/>
<path d="M145 30.1756C145.02 30.578 144.942 30.9794 144.772 31.3482C144.602 31.717 144.344 32.0433 144.019 32.3013C143.363 32.8119 142.401 33.0683 141.134 33.0706C140.681 33.0753 140.228 33.0408 139.782 32.9675C139.413 32.9066 139.056 32.7907 138.725 32.6241C138.451 32.4926 138.214 32.2993 138.036 32.0609C137.865 31.8254 137.776 31.5439 137.784 31.2573C137.776 31.0057 137.835 30.7563 137.957 30.5327C138.063 30.3466 138.203 30.1803 138.372 30.0417C138.734 30.2502 139.117 30.425 139.515 30.5637C139.994 30.7192 140.498 30.7948 141.004 30.7869C141.287 30.8017 141.569 30.7461 141.823 30.6255C141.908 30.5864 141.979 30.5254 142.03 30.4496C142.08 30.3737 142.107 30.2859 142.108 30.1962C142.111 30.1193 142.093 30.0429 142.057 29.974C142.022 29.905 141.968 29.8457 141.902 29.8013C141.69 29.6816 141.454 29.6034 141.21 29.5712L140.694 29.4647C139.88 29.338 139.117 29.006 138.483 28.5032C138.232 28.2583 138.038 27.9655 137.914 27.6442C137.789 27.3228 137.738 26.9801 137.762 26.6384C137.755 26.2241 137.849 25.8139 138.036 25.4399C138.216 25.0876 138.482 24.7814 138.812 24.5471C139.173 24.2956 139.578 24.1073 140.009 23.9907C140.51 23.8555 141.028 23.7896 141.549 23.795C141.95 23.7935 142.351 23.8268 142.746 23.8946C143.084 23.9489 143.411 24.0483 143.72 24.1899C143.978 24.3061 144.202 24.4806 144.373 24.6982C144.536 24.9135 144.621 25.1741 144.614 25.4399C144.619 25.6761 144.57 25.9105 144.47 26.1268C144.383 26.3117 144.261 26.4795 144.109 26.6213C143.98 26.5423 143.84 26.4788 143.695 26.4324C143.498 26.3613 143.297 26.3016 143.092 26.2538C142.875 26.1986 142.655 26.1539 142.432 26.1199C142.23 26.0848 142.025 26.0664 141.819 26.0649C141.521 26.0514 141.222 26.097 140.943 26.1989C140.851 26.2292 140.772 26.2864 140.716 26.3622C140.66 26.4381 140.631 26.5287 140.633 26.6213C140.632 26.6835 140.647 26.7451 140.677 26.8007C140.706 26.8563 140.749 26.9043 140.802 26.9406C141.004 27.056 141.227 27.1351 141.459 27.1742L141.992 27.2978C143.092 27.5622 143.878 27.9228 144.344 28.3795C144.572 28.6227 144.748 28.9067 144.861 29.215C144.973 29.5233 145.021 29.8498 145 30.1756Z" fill="#094063"/>
</g>
<defs>
<clipPath id="clip0_1_12607">
<rect width="145" height="36" fill="white"/>
</clipPath>
</defs>
</svg>
