<svg width="48" height="48" viewBox="0 0 48 48" fill="none" xmlns="http://www.w3.org/2000/svg">
<rect width="48" height="48" rx="24" fill="#EFF8FF"/>
<path d="M31.5833 14.25H16.4167C15.2196 14.25 14.25 15.2196 14.25 16.4167V31.5833C14.25 32.7804 15.2196 33.75 16.4167 33.75H31.5833C32.7804 33.75 33.75 32.7804 33.75 31.5833V16.4167C33.75 15.2196 32.7804 14.25 31.5833 14.25ZM17.5 17.5H22.9167V22.9167H17.5V17.5ZM22.375 31.5833C20.88 31.5833 19.6667 30.37 19.6667 28.875C19.6667 27.38 20.88 26.1667 22.375 26.1667C23.87 26.1667 25.0833 27.38 25.0833 28.875C25.0833 30.37 23.87 31.5833 22.375 31.5833ZM25.625 25.0833L28.875 19.6667L32.125 25.0833H25.625Z" fill="#175CD3"/>
<rect x="17.6094" y="17.6094" width="5.72881" height="5.72881" fill="#F8FCFB"/>
<path d="M28.8473 19.3711L32.0913 24.9897H25.6034L28.8473 19.3711Z" fill="#F8FCFB"/>
</svg>
