<svg width="123" height="105" viewBox="0 0 123 105" fill="none" xmlns="http://www.w3.org/2000/svg">
<path fill-rule="evenodd" clip-rule="evenodd" d="M122.645 24.9567C104.203 31.1274 94.2038 39.9584 92.6474 51.45C99.9013 53.2994 105.587 57.1395 109.704 62.9704C113.821 68.8014 115.418 75.1217 114.495 81.9316C113.515 89.167 110.351 94.9508 105.002 99.2829C99.6526 103.615 93.4352 105.301 86.3495 104.341C78.4134 103.267 71.9775 99.1081 67.0415 91.8659C62.1055 84.6238 60.262 76.392 61.511 67.1703C65.2581 39.5052 83.6351 19.9621 116.643 8.54054L122.645 24.9567ZM61.6307 16.6927C43.0468 22.8442 32.9767 31.6656 31.4203 43.1572C38.8159 45.0258 44.5721 48.8755 48.689 54.7064C52.806 60.5374 54.4032 66.8577 53.4809 73.6675C52.5009 80.903 49.3009 86.682 43.8809 91.0045C38.4609 95.327 32.2081 97.0084 25.1224 96.0487C17.1863 94.9738 10.7858 90.8201 5.92066 83.5875C1.0555 76.355 -0.752537 68.128 0.49648 58.9063C4.24353 31.2412 22.5497 11.6885 55.4157 0.247737L61.6307 16.6927Z" fill="#9CD3C9"/>
</svg>
