<svg width="211" height="172" viewBox="0 0 211 172" fill="none" xmlns="http://www.w3.org/2000/svg">
<path d="M132.361 75.4351C136.246 73.5563 139.894 72.0402 143.293 70.7897L146.184 69.7711L145.936 69.7389L146.204 69.7141C163.051 64.0384 172.974 65.306 173.222 65.3382C173.193 64.9769 172.322 64.8038 169.049 61.8862C167.173 60.1719 165.169 58.5883 163.054 57.1479C159.673 54.1924 151.425 50.1147 151.425 50.1147L151.326 50.1018C140.916 45.1425 129.801 41.6864 118.353 39.8495C111.169 38.9685 103.917 38.824 96.7217 39.4186L96.1863 39.4681C86.8984 40.1906 74.6706 44.6316 74.6706 44.6316C68.1605 46.885 61.914 49.7543 56.0245 53.1966L55.7509 53.3637C53.6036 54.6698 39.0646 63.8052 28.4327 77.4667L28.4251 77.5253C27.86 78.1974 27.3467 78.9074 26.8891 79.6501C26.8891 79.6501 26.8891 79.6501 27.0005 79.6646C26.8431 79.9064 26.6749 80.1349 26.5159 80.3884C26.357 80.6419 26.1209 81.0046 25.928 81.3252C23.5847 85.2232 22.0862 89.5341 21.5191 94.0084C19.0779 112.765 33.5696 129.637 53.4593 132.226C79.7641 135.649 90.1887 111.291 108.886 92.1699C114.928 85.708 122.189 80.3729 130.305 76.4311C130.359 76.3995 130.417 76.375 130.478 76.3583L132.361 75.4351Z" fill="#4FBFA3"/>
<path d="M173.166 65.3781C172.98 65.354 163.06 64.0629 146.148 69.754L143.257 70.7726C139.858 72.023 136.208 73.5509 132.325 75.418C131.694 75.7174 129.843 76.4898 128.804 77.1176C136.127 86.2727 140.413 92.3384 143.265 96.6438C146.118 100.949 147.784 103.92 150.109 107.346C170.614 137.435 221.024 108.052 173.166 65.3781Z" fill="#439687"/>
</svg>
