<svg width="82" height="80" viewBox="0 0 82 80" fill="none" xmlns="http://www.w3.org/2000/svg">
<ellipse cx="40.75" cy="40" rx="40.5" ry="40" fill="#1D2939"/>
<path d="M52.01 26.1118C52.01 24.9472 51.0626 24 49.898 24H32.3621C31.1975 24 30.25 24.9471 30.25 26.1118V53.8944C30.25 55.0529 31.1974 56 32.3621 56H49.898C51.0626 56 52.01 55.0529 52.01 53.8944V26.1118ZM38.57 26.7839H43.6901C44.042 26.7839 44.33 27.0718 44.33 27.4238C44.33 27.7757 44.042 28.0637 43.6901 28.0637H38.57C38.218 28.0637 37.93 27.7757 37.93 27.4238C37.9298 27.0718 38.2177 26.7839 38.57 26.7839ZM43.1586 53.389H39.1011C38.7491 53.389 38.4612 53.1011 38.4612 52.7491C38.4612 52.3972 38.7491 52.1092 39.1011 52.1092H43.1586C43.5106 52.1092 43.7986 52.3972 43.7986 52.7491C43.7986 53.1011 43.5106 53.389 43.1586 53.389ZM50.7297 49.4979H31.5296V30.8415H50.7297V49.4979Z" fill="#7AD06D"/>
<path d="M42.3352 39.2053H46.6553C47.0072 39.2053 47.2952 38.9238 47.2952 38.5654V34.2454C47.2952 33.8934 47.0072 33.6055 46.6553 33.6055H42.3352C41.9833 33.6055 41.6953 33.8934 41.6953 34.2454V38.5654C41.695 38.9238 41.9833 39.2053 42.3352 39.2053Z" fill="#7AD06D"/>
<path d="M34.8118 46.7248H39.1318C39.4838 46.7248 39.7717 46.4433 39.7717 46.0849V41.7649C39.7717 41.4129 39.4838 41.125 39.1318 41.125H34.8118C34.4598 41.125 34.1719 41.4129 34.1719 41.7649V46.0849C34.1719 46.4433 34.4598 46.7248 34.8118 46.7248Z" fill="#7AD06D"/>
<path d="M34.8118 39.2053H39.1318C39.4838 39.2053 39.7717 38.9238 39.7717 38.5654V34.2454C39.7717 33.8934 39.4838 33.6055 39.1318 33.6055H34.8118C34.4598 33.6055 34.1719 33.8934 34.1719 34.2454V38.5654C34.1719 38.9238 34.4598 39.2053 34.8118 39.2053Z" fill="#7AD06D"/>
<path d="M42.3352 46.7248H46.6553C47.0072 46.7248 47.2952 46.4433 47.2952 46.0849V41.7649C47.2952 41.4129 47.0072 41.125 46.6553 41.125H42.3352C41.9833 41.125 41.6953 41.4129 41.6953 41.7649V46.0849C41.695 46.4433 41.9833 46.7248 42.3352 46.7248Z" fill="#7AD06D"/>
</svg>
