<svg width="49" height="48" viewBox="0 0 49 48" fill="none" xmlns="http://www.w3.org/2000/svg">
<rect x="0.5" width="48" height="48" rx="24" fill="#FCE7F6"/>
<path d="M30.978 27.0127C30.5704 26.961 30.3267 26.8132 30.2617 26.769C30.194 26.7228 30.1036 26.7228 30.0358 26.769C29.9078 26.8556 29.6245 26.8979 29.3196 26.9365C29.2198 26.9497 29.1445 27.0344 29.1445 27.136V27.9389C29.1445 28.3991 29.3704 28.8744 29.7196 29.1492C29.8288 29.2349 29.9445 29.2801 30.0471 29.3196L30.0754 29.3309C30.0989 29.3403 30.1234 29.345 30.1488 29.345C30.1732 29.345 30.1987 29.3403 30.2222 29.3309L30.2504 29.3196C30.353 29.2801 30.4688 29.2349 30.578 29.1492C30.9168 28.8829 31.153 28.368 31.153 27.8974V27.2123C31.153 27.1106 31.0777 27.025 30.978 27.0127Z" fill="#FAA7E0"/>
<path d="M34.087 19.1093H31.5324V17.4049C31.5324 16.9339 31.1532 16.5547 30.6822 16.5547H29.8279V14.8502C29.8279 14.3832 29.4487 14 28.9777 14H20.4595C19.9885 14 19.6093 14.3832 19.6093 14.8502V16.5547H18.7591C18.2881 16.5547 17.9089 16.9379 17.9089 17.4049V19.1093H15.3542C14.8792 19.1093 14.5 19.4925 14.5 19.9595V33.583C14.5 34.0541 14.8792 34.4373 15.3502 34.4373H27.2334C25.6686 32.9204 24.7186 30.7091 24.7186 28.4777V25.0728C24.7186 23.7915 25.6766 22.7018 26.95 22.5381C27.4369 22.4783 28.9099 22.2867 29.2691 22.0951C29.6683 21.8196 30.1672 21.668 30.6822 21.668C31.1971 21.668 31.696 21.8196 32.1192 22.111C32.203 22.1669 32.9933 22.6818 34.4104 22.8615C34.594 22.8854 34.7696 22.9333 34.9373 22.9932V19.9635C34.9373 19.4925 34.5581 19.1093 34.087 19.1093ZM21.3138 19.1093H19.6093V18.2591H21.3138V19.1093ZM26.4231 17.4049V19.1093H23.0182V17.4049C23.0182 16.9339 22.639 16.5547 22.168 16.5547H21.3177V15.7044H28.1315V16.5547H27.2733C26.8023 16.5547 26.4231 16.9379 26.4231 17.4049ZM29.8279 19.1093H28.1235V18.2591H29.8279V19.1093Z" fill="#EE46BC"/>
</svg>
