<svg width="125" height="25" viewBox="0 0 125 25" fill="none" xmlns="http://www.w3.org/2000/svg">
<path d="M12.25 7.82918C12.319 6.93613 12.4724 6.31039 12.8234 5.9641C13.2834 5.50846 14.2339 5.30647 15.9265 5.229C16.0942 5.79741 16.1798 6.38647 16.1809 6.97866V24.7258H12.2945V11.5289C12.2945 9.97374 12.3175 8.76777 12.25 7.82918Z" fill="#FDD600"/>
<path d="M9.87064 0.729004C10.2383 0.730642 10.6051 0.764184 10.9669 0.829244C9.37442 1.60676 8.14245 2.95815 7.52344 4.60649C6.86725 4.58523 6.12676 4.57915 5.2774 4.57915H0.835938V0.729004H9.87064Z" fill="#FDD600"/>
<path d="M23.0443 0.729004H14.0096C13.1809 0.728805 12.3604 0.890314 11.5949 1.20431C10.8293 1.51831 10.1336 1.97863 9.54761 2.559C8.96162 3.13938 8.4968 3.82842 8.17961 4.58678C7.86248 5.34515 7.69922 6.15798 7.69922 6.97884V24.726H11.5857V11.5291C11.5857 5.02871 11.1825 4.57915 18.6013 4.57915H23.0473L23.0443 0.729004Z" fill="#1D1D1B"/>
<path d="M23.3348 24.4588H19.8086V9.57457H23.0695L23.2229 10.779H23.3133C24.0317 10.3524 24.7972 10.0088 25.5946 9.75535C26.3213 9.52171 27.0798 9.39976 27.8437 9.39386H28.2546C28.3119 9.39159 28.369 9.40197 28.4217 9.42422V12.8021C28.2688 12.7569 28.1105 12.7319 27.951 12.7276C27.7578 12.7175 27.4283 12.7124 26.9622 12.7124C26.299 12.7076 25.637 12.7682 24.986 12.8932C24.4204 12.9998 23.8693 13.1717 23.344 13.405L23.3348 24.4588Z" fill="#1D1D1B"/>
<path d="M33.6075 24.7255C32.0672 24.7255 30.9373 24.3493 30.2178 23.597C29.4982 22.8447 29.1405 21.6646 29.1446 20.0567C29.1446 18.4113 29.5754 17.2469 30.437 16.5635C31.2986 15.88 32.7832 15.5388 34.8907 15.5398C35.4779 15.5398 36.0774 15.5702 36.6845 15.6294C37.2158 15.6782 37.7436 15.7589 38.2651 15.8709V14.6088C38.2651 13.8251 38.0219 13.253 37.5354 12.8926C37.0489 12.5321 36.2787 12.3514 35.2249 12.3504C34.2724 12.3504 33.4261 12.3802 32.6861 12.4399C31.9761 12.4967 31.2704 12.5982 30.5735 12.7437V9.82004C31.3997 9.63037 32.2375 9.49442 33.0817 9.41301C33.9831 9.32389 35.0522 9.27881 36.2889 9.27783C38.1287 9.27783 39.5085 9.69446 40.4284 10.5278C41.3482 11.3611 41.8046 12.611 41.7975 14.2777V24.4536H38.5334L38.3802 23.1277H38.3188C37.6388 23.6267 36.8847 24.0181 36.0835 24.2881C35.2889 24.5709 34.4518 24.7188 33.6075 24.7255ZM35.3108 18.0428C34.2162 18.0428 33.4659 18.1683 33.0602 18.4194C32.6544 18.6706 32.45 19.1475 32.4469 19.8502C32.4469 20.5316 32.6141 21.0186 32.9482 21.3112C33.2825 21.6038 33.8549 21.7491 34.6653 21.7471C35.2974 21.7415 35.926 21.6552 36.5358 21.4905C37.1323 21.3437 37.7087 21.1265 38.2529 20.8434V18.2828C37.7674 18.2038 37.286 18.1436 36.8087 18.102C36.3395 18.0625 35.8367 18.0428 35.3108 18.0428Z" fill="#1D1D1B"/>
<path d="M48.5652 24.459H45.0391V9.57479H48.0793L48.2326 11.0815H48.323C48.9939 10.4838 49.7747 10.0198 50.6227 9.71457C51.5579 9.40627 52.5395 9.25883 53.5249 9.27861C55.1868 9.27861 56.4537 9.69024 57.3256 10.5134C58.1974 11.3366 58.6333 12.5516 58.6333 14.1585V24.459H55.1071V14.6096C55.1071 13.8867 54.8689 13.3394 54.3927 12.9678C53.9164 12.5962 53.2116 12.4104 52.2785 12.4104C51.6214 12.4095 50.967 12.4958 50.3329 12.6671C49.71 12.8351 49.1158 13.0941 48.5699 13.4356L48.5652 24.459Z" fill="#1D1D1B"/>
<path d="M67.5094 12.2896C66.4359 12.2896 65.7016 12.3949 65.3061 12.6055C64.9105 12.8161 64.7128 13.2718 64.7128 13.9724C64.6932 14.2471 64.7803 14.5188 64.9565 14.7318C65.1099 14.9034 65.392 15.0189 65.7769 15.0781L69.5222 15.6325C70.7183 15.7934 71.5544 16.1651 72.0305 16.7473C72.5066 17.3294 72.744 18.2534 72.7421 19.5191C72.7421 21.3416 72.3165 22.6665 71.4662 23.4937C70.6158 24.321 69.1654 24.7316 67.115 24.7255C66.0402 24.7297 64.9654 24.679 63.8956 24.5736C63.0618 24.498 62.237 24.3454 61.4319 24.1179V21.0242C62.1924 21.2086 62.9641 21.3446 63.7423 21.4312C64.6605 21.5422 65.5846 21.5975 66.5098 21.5968C67.5633 21.5968 68.2787 21.4661 68.6562 21.2049C69.0331 20.9437 69.2199 20.4516 69.2154 19.7287C69.2368 19.4281 69.1388 19.1312 68.9429 18.9009C68.76 18.7096 68.4551 18.585 68.0303 18.5243L64.2298 17.982C63.1954 17.8423 62.435 17.4561 61.9485 16.8232C61.462 16.1904 61.2188 15.2715 61.2188 14.0666C61.2188 12.4405 61.7206 11.2356 62.7243 10.4518C63.728 9.66813 65.2534 9.2768 67.3005 9.27783C68.1315 9.27783 68.8917 9.29807 69.5805 9.33855C70.2934 9.3811 71.0037 9.46121 71.7081 9.57855V12.5615C71.1808 12.4805 70.5477 12.4152 69.8089 12.3655C69.0701 12.3159 68.3034 12.2906 67.5094 12.2896Z" fill="#1D1D1B"/>
<path d="M84.4449 21.2058V24.1871C83.9779 24.3618 83.494 24.488 83.0004 24.5638C82.4445 24.6685 81.8802 24.7239 81.3139 24.7293C79.3887 24.7293 78.0084 24.3127 77.1749 23.4794C76.3407 22.6461 75.9249 21.2559 75.9282 19.3088V12.5015H73.9258V9.57938H76.0235L76.5106 6.02539H79.4588V9.57938H84.2639V12.5015H79.4588V19.1842C79.4588 20.0682 79.6514 20.6706 80.0367 20.9916C80.4226 21.3126 81.1115 21.4736 82.1052 21.4746C82.5113 21.4705 82.9173 21.4452 83.3208 21.3987C83.7003 21.365 84.0758 21.3005 84.4449 21.2058Z" fill="#1D1D1B"/>
<path d="M91.404 24.7255C89.7208 24.7255 88.4637 24.3088 87.6341 23.4756C86.8038 22.6423 86.3874 21.3933 86.3828 19.7287V9.57861H89.9089V19.2776C89.9089 20.04 90.1138 20.5923 90.5225 20.9346C90.9311 21.2769 91.5902 21.4475 92.4983 21.4464C93.0808 21.4445 93.6613 21.384 94.2308 21.2657C94.7919 21.1508 95.3413 20.9872 95.8732 20.7767V9.57861H99.3992V24.4628H96.1456L96.025 23.4391H95.9342C95.1707 23.833 94.3716 24.1554 93.5471 24.4021C92.8518 24.6107 92.1305 24.7197 91.404 24.7255Z" fill="#1D1D1B"/>
<path d="M106.277 24.4588H102.75V9.57457H106.004L106.157 10.779H106.248C106.966 10.3524 107.731 10.0088 108.529 9.75535C109.255 9.52171 110.014 9.39976 110.778 9.39386H111.188C111.246 9.39159 111.303 9.40197 111.356 9.42422V12.8021C111.202 12.7569 111.044 12.7319 110.883 12.7276C110.692 12.7175 110.363 12.7124 109.896 12.7124C109.233 12.7076 108.571 12.7682 107.92 12.8932C107.354 12.9994 106.803 13.1712 106.278 13.405L106.277 24.4588Z" fill="#1D1D1B"/>
<path d="M116.549 24.7255C115.009 24.7255 113.879 24.3493 113.159 23.597C112.439 22.8447 112.082 21.6646 112.086 20.0567C112.086 18.4113 112.517 17.2469 113.378 16.5635C114.24 15.88 115.724 15.5388 117.832 15.5398C118.419 15.5398 119.017 15.5697 119.626 15.6294C120.157 15.6782 120.685 15.7589 121.207 15.8709V14.6088C121.207 13.8251 120.963 13.253 120.477 12.8926C119.99 12.5321 119.22 12.3514 118.166 12.3504C117.213 12.3504 116.368 12.3807 115.628 12.4399C114.917 12.4966 114.212 12.5981 113.515 12.7437V9.82004C114.341 9.63024 115.179 9.49429 116.023 9.41301C116.924 9.32389 117.993 9.27881 119.23 9.27783C121.07 9.27783 122.45 9.69446 123.37 10.5278C124.29 11.3611 124.746 12.611 124.739 14.2777V24.4536H121.475L121.321 23.1277H121.262C120.581 23.6263 119.828 24.0178 119.027 24.2881C118.231 24.5708 117.394 24.7187 116.549 24.7255ZM118.251 18.0428C117.158 18.0428 116.411 18.1689 116.001 18.4194C115.592 18.6701 115.388 19.147 115.388 19.8502C115.388 20.5534 115.556 21.0196 115.891 21.3112C116.227 21.6029 116.797 21.7471 117.608 21.7471C118.24 21.7414 118.869 21.6551 119.479 21.4905C120.075 21.3437 120.651 21.1265 121.196 20.8434V18.2828C120.709 18.2038 120.228 18.1436 119.752 18.102C119.275 18.0605 118.775 18.0408 118.251 18.0428Z" fill="#1D1D1B"/>
</svg>
