<svg width="24" height="20" viewBox="0 0 24 20" fill="none" xmlns="http://www.w3.org/2000/svg">
<path d="M23.8563 2.60005C22.9657 2.99402 22.0211 3.25276 21.054 3.36771C22.0734 2.75805 22.8363 1.79856 23.2007 0.668046C22.244 1.23738 21.1952 1.63638 20.102 1.85221C19.3677 1.06655 18.3944 0.545503 17.3335 0.370061C16.2725 0.19462 15.1833 0.374619 14.2351 0.882074C13.287 1.38953 12.5331 2.19601 12.0906 3.17614C11.6482 4.15626 11.5419 5.25512 11.7883 6.30188C9.8483 6.20464 7.95039 5.70049 6.21784 4.82215C4.48529 3.94382 2.95682 2.71093 1.73167 1.20355C1.29801 1.9484 1.07012 2.79514 1.07134 3.65705C1.07134 5.34871 1.93234 6.84321 3.24134 7.71821C2.46668 7.69382 1.70908 7.48462 1.03167 7.10805V7.16871C1.03191 8.29536 1.42177 9.38726 2.13516 10.2593C2.84855 11.1313 3.84157 11.7298 4.94584 11.9532C4.22672 12.1481 3.4727 12.1768 2.74084 12.0372C3.05218 13.007 3.65901 13.8551 4.47636 14.4628C5.29371 15.0706 6.28065 15.4075 7.29901 15.4264C6.2869 16.2213 5.12805 16.8089 3.8887 17.1556C2.64935 17.5023 1.35382 17.6013 0.0761719 17.447C2.30649 18.8814 4.90278 19.6429 7.5545 19.6404C16.5297 19.6404 21.4378 12.2052 21.4378 5.75705C21.4378 5.54705 21.432 5.33471 21.4227 5.12705C22.378 4.43657 23.2025 3.58124 23.8575 2.60121L23.8563 2.60005Z" fill="#094063"/>
</svg>
